<?xml version="1.0" encoding="utf-8"?>
<!-- Generator: Adobe Illustrator 25.0.0, SVG Export Plug-In . SVG Version: 6.00 Build 0)  -->
<svg version="1.1" id="Brand" xmlns="http://www.w3.org/2000/svg" xmlns:xlink="http://www.w3.org/1999/xlink" x="0px" y="0px"
	 viewBox="0 0 162.8 188" style="enable-background:new 0 0 162.8 188;" xml:space="preserve">
<style type="text/css">
	.st0{stroke:#000000;stroke-width:5;stroke-miterlimit:10;}
	.st1{fill:#E6E6E6;}
	.st2{fill:#FF1493;}
</style>
<path id="Part_x5F_6" class="st0" d="M160.3,47.9C134,33,107.7,18,81.4,3L2.5,48v92l78.9,45l78.8-45V93.9
	C160.2,78.6,160.3,63.3,160.3,47.9z"/>
<polygon id="Part_x5F_5" class="st1" points="160.2,93.9 85.5,93.9 160.2,137.6 "/>
<polygon id="Part_x5F_4" class="st1" points="115.8,114.4 159.6,140.4 82.8,184.2 82.8,133.3 "/>
<polygon id="Part_x5F_3" class="st1" points="47,114.4 3.1,140.4 80,184.2 80,133.3 "/>
<polygon id="Part_x5F_2" class="st2" points="2.5,50.4 77.2,93.9 2.5,137.6 "/>
<polygon id="Part_x5F_1" class="st1" points="47,73.6 3.1,47.6 80,3.8 80,54.7 "/>
<polygon id="Part_x5F_0" class="st1" points="115.8,73.6 159.6,47.6 82.8,3.8 82.8,54.7 "/>
</svg>
